<svg id="svg" version="1.1" xmlns="http://www.w3.org/2000/svg" xmlns:xlink="http://www.w3.org/1999/xlink" width="400" height="170" viewBox="0, 0, 400,170"><g id="svgg"><path id="path0" d="M10.667 51.662 L 10.667 87.412 28.833 87.206 C 49.482 86.972,50.708 86.707,55.909 81.348 C 63.283 73.749,63.181 62.002,55.654 52.287 L 52.118 47.722 53.883 44.361 C 58.682 35.222,54.874 22.949,45.746 18.134 C 42.356 16.345,42.229 16.332,26.500 16.123 L 10.667 15.913 10.667 51.662 M95.722 51.140 C 86.953 70.496,79.653 86.569,79.501 86.857 C 79.349 87.145,82.290 87.295,86.035 87.191 L 92.845 87.000 95.045 82.000 L 97.245 77.000 113.515 76.822 L 129.786 76.644 132.060 81.983 L 134.333 87.322 140.833 87.328 C 145.614 87.332,147.322 87.113,147.292 86.500 C 147.093 82.457,115.471 16.317,113.653 16.140 L 111.667 15.946 95.722 51.140 M282.148 18.795 C 281.442 20.374,274.221 36.280,266.099 54.141 C 257.978 72.002,251.333 86.777,251.333 86.974 C 251.333 87.172,254.282 87.333,257.887 87.333 L 264.440 87.333 266.839 82.000 L 269.237 76.667 285.452 76.672 L 301.667 76.678 303.935 82.006 L 306.204 87.333 312.813 87.333 C 318.806 87.333,319.388 87.224,319.052 86.167 C 318.847 85.525,311.656 69.550,303.071 50.667 C 287.741 16.948,287.425 16.330,285.446 16.128 C 283.641 15.944,283.296 16.223,282.148 18.795 M361.630 16.680 C 350.238 18.290,342.945 26.568,343.434 37.333 C 343.816 45.741,348.527 50.612,360.887 55.378 C 376.754 61.497,380.665 66.158,374.829 71.994 C 367.653 79.170,352.412 75.438,349.125 65.700 C 348.958 65.204,343.014 69.229,339.779 72.029 C 338.969 72.730,341.493 77.285,344.277 80.145 C 359.486 95.771,389.377 87.292,389.319 67.369 C 389.287 56.517,384.612 52.192,363.667 43.637 C 355.901 40.465,353.448 36.576,356.649 32.508 C 361.627 26.179,373.592 27.911,376.699 35.412 C 377.137 36.469,377.775 37.333,378.117 37.333 C 378.590 37.333,385.651 32.892,387.256 31.585 C 387.724 31.204,385.844 27.318,383.880 24.607 C 379.467 18.515,370.714 15.396,361.630 16.680 M190.736 17.722 C 164.861 24.680,156.202 58.248,175.345 77.391 C 197.361 99.407,234.000 85.367,234.000 54.914 C 234.000 47.347,235.738 48.000,215.595 48.000 L 198.000 48.000 198.000 53.667 L 198.000 59.333 209.720 59.333 L 221.439 59.333 220.988 61.500 C 218.453 73.659,202.708 79.416,189.811 72.899 C 172.553 64.180,173.411 39.123,191.253 30.757 C 199.169 27.045,209.925 29.053,217.163 35.592 C 220.541 38.644,220.063 38.811,223.990 33.218 L 227.349 28.436 225.841 26.790 C 218.531 18.809,202.292 14.614,190.736 17.722 M40.500 28.678 C 42.728 30.128,44.217 33.737,43.757 36.572 C 43.001 41.231,41.933 42.053,28.167 48.567 L 22.667 51.170 22.667 39.183 L 22.667 27.196 30.833 27.449 C 36.513 27.625,39.457 28.000,40.500 28.678 M119.274 53.031 L 124.596 65.000 113.871 65.184 C 107.972 65.285,103.033 65.255,102.896 65.118 C 102.758 64.981,104.778 60.098,107.383 54.267 C 109.989 48.437,112.402 42.950,112.746 42.074 C 113.567 39.982,113.189 39.348,119.274 53.031 M285.768 65.184 C 279.925 65.285,274.995 65.218,274.812 65.035 C 274.509 64.732,276.888 59.124,283.133 45.422 L 285.424 40.394 290.907 52.697 L 296.390 65.000 285.768 65.184 M44.919 58.503 C 54.075 69.706,49.819 75.322,32.167 75.330 L 23.333 75.333 23.333 72.312 C 23.333 66.076,24.781 64.332,34.373 59.019 C 42.372 54.587,41.745 54.618,44.919 58.503 M249.077 120.310 C 246.686 123.958,248.906 124.560,251.621 121.000 L 253.401 118.667 251.777 118.667 C 250.787 118.667,249.733 119.308,249.077 120.310 M145.636 125.636 C 142.206 129.067,143.504 132.085,149.807 135.333 C 154.815 137.915,155.603 139.570,152.620 141.244 C 150.686 142.330,148.007 141.912,146.363 140.268 C 145.159 139.064,143.333 139.463,143.333 140.931 C 143.333 144.569,152.587 146.141,155.697 143.030 C 159.149 139.578,157.720 135.621,152.114 133.105 C 146.918 130.773,146.155 129.845,147.955 128.045 C 149.717 126.283,151.626 126.293,153.405 128.071 C 155.730 130.397,157.607 128.086,155.346 125.680 C 153.111 123.301,147.995 123.278,145.636 125.636 M169.542 133.169 C 163.966 145.560,164.229 144.667,166.155 144.667 C 167.248 144.667,168.037 144.117,168.545 143.000 C 169.258 141.437,169.616 141.333,174.333 141.333 C 179.050 141.333,179.409 141.437,180.121 143.000 C 180.843 144.583,184.431 145.572,183.889 144.038 C 182.461 140.002,174.836 124.024,174.333 124.016 C 173.967 124.010,171.811 128.129,169.542 133.169 M193.333 134.333 C 193.333 144.163,193.397 144.667,194.644 144.667 C 195.854 144.667,195.969 144.117,196.144 137.537 L 196.333 130.408 202.618 137.537 C 206.074 141.458,209.149 144.667,209.451 144.667 C 209.753 144.667,210.000 140.017,210.000 134.333 C 210.000 124.504,209.936 124.000,208.689 124.000 C 207.480 124.000,207.364 124.549,207.189 131.091 L 207.000 138.183 200.714 131.091 C 197.256 127.191,194.181 124.000,193.880 124.000 C 193.580 124.000,193.333 128.650,193.333 134.333 M220.000 125.333 C 220.000 126.444,220.444 126.667,222.667 126.667 L 225.333 126.667 225.333 135.667 L 225.333 144.667 227.000 144.667 L 228.667 144.667 228.667 135.667 L 228.667 126.667 231.333 126.667 C 233.556 126.667,234.000 126.444,234.000 125.333 C 234.000 124.085,233.556 124.000,227.000 124.000 C 220.444 124.000,220.000 124.085,220.000 125.333 M244.000 134.333 L 244.000 144.667 250.000 144.667 C 255.556 144.667,256.000 144.568,256.000 143.333 C 256.000 142.127,255.556 142.000,251.333 142.000 L 246.667 142.000 246.667 138.667 L 246.667 135.333 251.000 135.333 C 254.889 135.333,255.333 135.197,255.333 134.000 C 255.333 132.803,254.889 132.667,251.000 132.667 L 246.667 132.667 246.667 129.667 L 246.667 126.667 251.333 126.667 C 255.556 126.667,256.000 126.540,256.000 125.333 C 256.000 124.099,255.556 124.000,250.000 124.000 L 244.000 124.000 244.000 134.333 M177.949 138.167 C 177.977 138.442,176.318 138.667,174.262 138.667 C 171.532 138.667,170.617 138.442,170.870 137.833 C 171.060 137.375,171.903 135.374,172.744 133.387 L 174.272 129.774 176.085 133.720 C 177.082 135.891,177.921 137.892,177.949 138.167 " stroke="none" fill="#ffffff" fill-rule="evenodd"></path></g></svg>