<svg id="svg" version="1.1" xmlns="http://www.w3.org/2000/svg" xmlns:xlink="http://www.w3.org/1999/xlink" width="400" height="400" viewBox="0, 0, 400,400"><g id="svgg"><path id="path0" d="M146.970 7.371 C 91.162 23.117,45.539 60.512,21.018 110.606 C 0.574 152.371,-0.000 157.154,0.000 285.787 L 0.000 400.603 114.394 399.177 C 209.771 397.989,231.810 396.897,246.970 392.606 C 362.694 359.857,424.073 238.068,381.069 126.526 L 374.356 109.112 286.302 196.980 C 176.174 306.876,192.112 302.495,129.657 240.040 C 79.037 189.419,76.308 183.832,93.706 166.434 C 109.973 150.167,117.474 152.999,154.336 189.324 L 186.554 221.073 251.671 155.233 C 287.484 119.022,322.139 83.610,328.681 76.540 L 340.575 63.686 331.808 54.535 C 292.486 13.492,204.682 -8.912,146.970 7.371 " stroke="none" fill="#2e6a90" fill-rule="evenodd"></path></g></svg>