<svg id="svg" xmlns="http://www.w3.org/2000/svg" xmlns:xlink="http://www.w3.org/1999/xlink" width="400" height="400" viewBox="0, 0, 400,400"><g id="svgg"><path id="path0" d="M157.633 52.215 C 52.773 80.415,11.812 218.516,83.981 300.535 C 176.442 405.617,352.000 340.384,352.000 200.947 C 352.000 175.383,349.091 168.000,339.018 168.000 C 329.134 168.000,328.000 171.151,328.000 198.604 C 328.000 315.761,191.464 372.988,108.699 290.520 C 10.930 193.101,115.691 29.933,244.573 78.894 C 269.211 88.253,274.050 89.165,278.682 85.321 C 305.024 63.459,211.218 37.804,157.633 52.215 M312.686 81.879 C 309.397 82.514,279.641 107.550,246.561 137.516 C 177.391 200.177,186.188 195.288,170.468 179.804 C 141.044 150.822,99.668 169.301,111.784 206.013 C 118.232 225.551,167.986 269.333,183.740 269.333 C 199.314 269.333,194.199 273.163,265.333 208.236 C 349.739 131.196,352.002 128.755,351.990 114.733 C 351.974 95.250,334.580 76.570,320.000 80.378 C 319.267 80.570,315.975 81.245,312.686 81.879 M327.884 107.860 C 329.773 110.136,330.180 113.267,328.877 115.487 C 325.958 120.462,186.997 248.000,184.496 248.000 C 178.083 248.000,132.241 196.994,134.886 192.801 C 140.096 184.542,143.943 186.111,162.566 204.090 C 186.570 227.264,181.159 229.738,256.000 161.363 C 319.992 102.900,322.326 101.163,327.884 107.860 " stroke="none" fill="#2e6a90" fill-rule="evenodd"></path></g></svg>