<?xml version="1.0" encoding="utf-8"?>
<!-- Generator: Adobe Illustrator 21.0.0, SVG Export Plug-In . SVG Version: 6.00 Build 0)  -->
<svg version="1.1" id="Calque_1" xmlns="http://www.w3.org/2000/svg" xmlns:xlink="http://www.w3.org/1999/xlink" x="0px" y="0px"
	 viewBox="0 0 150 150" style="enable-background:new 0 0 150 150;" xml:space="preserve">
<style type="text/css">
	.st0{fill:#BCBCBB;}
</style>
<g>
	<path class="st0" d="M119.7,57.5H32.4c-4,0-7.2-3.7-7.2-8.3s3.2-8.3,7.2-8.3h87.3c4,0,7.2,3.7,7.2,8.3S123.7,57.5,119.7,57.5"/>
	<path class="st0" d="M119.7,85.1H32.4c-4,0-7.2-3.7-7.2-8.3c0-4.6,3.2-8.3,7.2-8.3h87.3c4,0,7.2,3.7,7.2,8.3
		C126.9,81.4,123.7,85.1,119.7,85.1"/>
	<path class="st0" d="M119.7,112.7H32.4c-4,0-7.2-3.7-7.2-8.3c0-4.6,3.2-8.3,7.2-8.3h87.3c4,0,7.2,3.7,7.2,8.3
		C126.9,109,123.7,112.7,119.7,112.7"/>
</g>
</svg>
