<svg id="svg" xmlns="http://www.w3.org/2000/svg" xmlns:xlink="http://www.w3.org/1999/xlink" width="400" height="400" viewBox="0, 0, 400,400"><g id="svgg"><path id="path0" d="M169.716 25.026 C 144.449 30.681,121.691 63.093,121.655 93.474 C 121.633 112.194,118.679 124.506,112.791 130.417 C 102.164 141.086,105.120 165.295,118.976 181.081 C 124.195 187.027,132.350 199.583,137.098 208.982 C 163.860 261.966,226.353 265.710,257.839 216.216 C 264.458 205.811,274.220 191.246,279.531 183.850 C 294.496 163.013,297.696 140.946,287.271 130.479 C 281.301 124.485,278.366 112.254,278.340 93.259 C 278.270 42.821,228.868 11.788,169.716 25.026 M247.297 54.136 C 263.398 68.784,264.865 72.832,264.865 102.627 C 264.865 127.919,266.665 135.135,272.973 135.135 C 284.780 135.135,283.336 164.993,270.957 176.816 C 265.389 182.135,256.890 194.244,252.069 203.726 C 228.472 250.143,171.528 250.143,147.931 203.726 C 143.110 194.244,134.611 182.135,129.043 176.816 C 116.664 164.993,115.220 135.135,127.027 135.135 C 133.335 135.135,135.135 127.919,135.135 102.627 C 135.135 41.907,202.053 12.977,247.297 54.136 M102.703 270.313 C 42.841 301.884,32.432 315.501,32.432 362.247 C 32.432 383.812,34.750 400.000,37.838 400.000 C 40.811 400.000,43.243 386.736,43.243 370.525 C 43.243 322.121,55.439 307.738,128.261 270.254 L 151.117 258.490 165.477 269.786 C 174.213 276.658,187.733 281.081,200.000 281.081 C 212.267 281.081,225.787 276.658,234.523 269.786 L 248.883 258.490 271.739 270.254 C 344.561 307.738,356.757 322.121,356.757 370.525 C 356.757 386.736,359.189 400.000,362.162 400.000 C 365.245 400.000,367.568 383.922,367.568 362.577 C 367.568 314.789,357.102 301.334,295.324 269.701 L 250.374 246.684 233.812 258.477 C 213.319 273.069,185.494 273.482,167.568 259.459 C 149.762 245.531,149.661 245.548,102.703 270.313 " stroke="none" fill="#E7305E" fill-rule="evenodd"></path></g></svg>